<svg width="80" height="49" viewBox="0 0 80 49" fill="none" xmlns="http://www.w3.org/2000/svg">
<g filter="url(#filter0_d_133_517)">
<rect width="80" height="49" rx="10" fill="white"/>
</g>
<g clip-path="url(#clip0_133_517)">
<path d="M24.2725 41.826V39.5095C24.2725 38.6213 23.6602 38.0423 22.6106 38.0423C22.0858 38.0423 21.5173 38.1967 21.1237 38.6987C20.8177 38.274 20.3804 38.0423 19.7244 38.0423C19.287 38.0423 18.8499 38.158 18.4999 38.5828V38.1195H17.5815V41.826H18.4999V39.7797C18.4999 39.1235 18.8935 38.8144 19.5059 38.8144C20.1179 38.8144 20.4242 39.162 20.4242 39.7797V41.826H21.3426V39.7797C21.3426 39.1235 21.7797 38.8144 22.3482 38.8144C22.9606 38.8144 23.2665 39.162 23.2665 39.7797V41.826H24.2725ZM37.8727 38.1195H36.386V36.9999H35.4677V38.1195H34.6368V38.8529H35.4675V40.5519C35.4675 41.4014 35.8611 41.9032 36.9107 41.9032C37.3044 41.9032 37.7414 41.7875 38.0478 41.6331L37.7852 40.938C37.5229 41.0924 37.2169 41.1311 36.9982 41.1311C36.5609 41.1311 36.386 40.8995 36.386 40.5132V38.8529H37.8727V38.1195ZM45.657 38.0421C45.1322 38.0421 44.7824 38.274 44.5637 38.5828V38.1195H43.6454V41.826H44.5637V39.7411C44.5637 39.1234 44.8697 38.7759 45.4382 38.7759C45.6131 38.7759 45.8319 38.8146 46.0068 38.8531L46.2691 38.081C46.0942 38.0423 45.8319 38.0423 45.657 38.0423V38.0421ZM33.8933 38.4284C33.4558 38.158 32.8437 38.0423 32.1877 38.0423C31.1383 38.0423 30.4386 38.5056 30.4386 39.2392C30.4386 39.857 30.9634 40.2044 31.8817 40.3203L32.319 40.359C32.8001 40.436 33.0624 40.5519 33.0624 40.7451C33.0624 41.0152 32.7126 41.2083 32.1002 41.2083C31.4881 41.2083 31.007 41.0152 30.7008 40.8223L30.2635 41.44C30.7446 41.7488 31.4006 41.9032 32.0564 41.9032C33.2809 41.9032 33.9808 41.4014 33.9808 40.7064C33.9808 40.05 33.4122 39.7024 32.5375 39.5867L32.1002 39.548C31.7066 39.5093 31.4006 39.4323 31.4006 39.2007C31.4006 38.9303 31.7066 38.7759 32.1877 38.7759C32.7126 38.7759 33.2373 38.9689 33.4997 39.0848L33.8933 38.4284ZM58.2953 38.0423C57.7704 38.0423 57.4206 38.274 57.2019 38.5828V38.1195H56.2835V41.826H57.2019V39.7411C57.2019 39.1234 57.5081 38.7759 58.0764 38.7759C58.2515 38.7759 58.4702 38.8146 58.6451 38.8531L58.9075 38.081C58.7326 38.0423 58.4702 38.0423 58.2953 38.0423ZM46.5753 39.9728C46.5753 41.0924 47.4498 41.9032 48.8056 41.9032C49.4178 41.9032 49.8551 41.7875 50.2923 41.4786L49.8551 40.8223C49.5053 41.0539 49.1555 41.1696 48.7618 41.1696C48.0184 41.1696 47.4937 40.7064 47.4937 39.9728C47.4937 39.2779 48.0184 38.8144 48.7618 38.7759C49.1555 38.7759 49.5053 38.8916 49.8551 39.1234L50.2923 38.4671C49.8551 38.158 49.4178 38.0423 48.8056 38.0423C47.4498 38.0423 46.5753 38.8531 46.5753 39.9728ZM55.0592 39.9728V38.1195H54.1408V38.5828C53.8347 38.2354 53.3974 38.0423 52.8289 38.0423C51.6481 38.0423 50.7298 38.8531 50.7298 39.9728C50.7298 41.0924 51.6481 41.9032 52.8289 41.9032C53.441 41.9032 53.8785 41.7103 54.1408 41.3627V41.826H55.0592V39.9728ZM51.6918 39.9728C51.6918 39.3164 52.1729 38.7759 52.9599 38.7759C53.7034 38.7759 54.2283 39.2779 54.2283 39.9728C54.2283 40.6292 53.7034 41.1696 52.9599 41.1696C52.1729 41.1309 51.6918 40.6292 51.6918 39.9728ZM40.7154 38.0423C39.4909 38.0423 38.6161 38.8144 38.6161 39.9728C38.6161 41.1311 39.4907 41.9032 40.759 41.9032C41.3712 41.9032 41.9836 41.7488 42.4646 41.4014L42.0272 40.8223C41.6774 41.0539 41.2401 41.2083 40.8029 41.2083C40.2343 41.2083 39.6658 40.9767 39.5345 40.3201H42.6396V40.0115C42.6834 38.8144 41.8963 38.0423 40.7154 38.0423ZM40.7154 38.7372C41.2837 38.7372 41.6776 39.0462 41.7648 39.6254H39.5783C39.6658 39.1234 40.0594 38.7372 40.7154 38.7372ZM63.4992 39.9728V36.6523H62.5809V38.5828C62.2747 38.2354 61.8374 38.0423 61.2689 38.0423C60.0882 38.0423 59.1698 38.8531 59.1698 39.9728C59.1698 41.0924 60.0882 41.9032 61.2689 41.9032C61.8813 41.9032 62.3185 41.7103 62.5809 41.3627V41.826H63.4992V39.9728ZM60.132 39.9728C60.132 39.3164 60.6129 38.7759 61.4002 38.7759C62.1436 38.7759 62.6683 39.2779 62.6683 39.9728C62.6683 40.6292 62.1436 41.1696 61.4002 41.1696C60.6129 41.1309 60.132 40.6292 60.132 39.9728ZM29.4326 39.9728V38.1195H28.5143V38.5828C28.2081 38.2354 27.7708 38.0423 27.2023 38.0423C26.0216 38.0423 25.1032 38.8531 25.1032 39.9728C25.1032 41.0924 26.0216 41.9032 27.2023 41.9032C27.8147 41.9032 28.2519 41.7103 28.5143 41.3627V41.826H29.4326V39.9728ZM26.0216 39.9728C26.0216 39.3164 26.5027 38.7759 27.2898 38.7759C28.0332 38.7759 28.5581 39.2779 28.5581 39.9728C28.5581 40.6292 28.0332 41.1696 27.2898 41.1696C26.5027 41.1309 26.0216 40.6292 26.0216 39.9728Z" fill="black"/>
<path d="M33.5872 9.9729H47.3624V31.8261H33.5872V9.9729Z" fill="#FF5F00"/>
<path d="M34.4622 20.8996C34.4622 16.4595 36.8236 12.5212 40.4532 9.97289C37.7858 8.11965 34.4185 7 30.7451 7C22.0423 7 15.0017 13.2161 15.0017 20.8996C15.0017 28.5829 22.0423 34.7991 30.7449 34.7991C34.4183 34.7991 37.7856 33.6795 40.4532 31.8261C36.8236 29.3165 34.4622 25.3396 34.4622 20.8996Z" fill="#EB001B"/>
<path d="M65.948 20.8996C65.948 28.5829 58.9074 34.7991 50.2048 34.7991C46.5314 34.7991 43.1642 33.6795 40.4966 31.8261C44.17 29.2779 46.4878 25.3396 46.4878 20.8996C46.4878 16.4595 44.1262 12.5212 40.4966 9.97289C43.164 8.11965 46.5314 7 50.2048 7C58.9074 7 65.948 13.2548 65.948 20.8996Z" fill="#F79E1B"/>
</g>
<defs>
<filter id="filter0_d_133_517" x="-4" y="0" width="88" height="57" filterUnits="userSpaceOnUse" color-interpolation-filters="sRGB">
<feFlood flood-opacity="0" result="BackgroundImageFix"/>
<feColorMatrix in="SourceAlpha" type="matrix" values="0 0 0 0 0 0 0 0 0 0 0 0 0 0 0 0 0 0 127 0" result="hardAlpha"/>
<feOffset dy="4"/>
<feGaussianBlur stdDeviation="2"/>
<feComposite in2="hardAlpha" operator="out"/>
<feColorMatrix type="matrix" values="0 0 0 0 0 0 0 0 0 0 0 0 0 0 0 0 0 0 0.25 0"/>
<feBlend mode="normal" in2="BackgroundImageFix" result="effect1_dropShadow_133_517"/>
<feBlend mode="normal" in="SourceGraphic" in2="effect1_dropShadow_133_517" result="shape"/>
</filter>
<clipPath id="clip0_133_517">
<rect width="51" height="35" fill="white" transform="translate(15 7)"/>
</clipPath>
</defs>
</svg>
